<svg width="19" height="21" viewBox="0 0 19 21" fill="none" xmlns="http://www.w3.org/2000/svg">
<path fill-rule="evenodd" clip-rule="evenodd" d="M7.91086 1.72624C8.13173 0.723399 8.75971 0 9.4999 0C10.2401 0 10.868 0.723386 11.0889 1.72621C13.5679 2.03955 15.6121 3.91613 16.1023 6.43097L17.796 15.12L18.904 17.2514C19.1947 17.8107 18.7904 18.48 18.162 18.48H0.83801C0.209569 18.48 -0.194651 17.8107 0.0960449 17.2514L1.20397 15.12L2.89769 6.43097C3.38788 3.9162 5.43202 2.03965 7.91086 1.72624ZM10.3532 2.52H8.64684C6.27873 2.52 4.2104 4.20606 3.74621 6.58744L2.05249 15.2765C2.03741 15.3538 2.01123 15.4287 1.97471 15.499L0.866778 17.6304C0.864461 17.6349 0.863814 17.6378 0.863814 17.6378L0.863648 17.6399L18.1363 17.64L18.1362 17.6378C18.1362 17.6378 18.1355 17.6349 18.1332 17.6304L17.0253 15.499C16.9888 15.4287 16.9626 15.3538 16.9475 15.2765L15.2538 6.58744C14.7896 4.20606 12.7213 2.52 10.3532 2.52ZM8.8149 1.68H10.1849C10.1244 1.49025 10.0458 1.32614 9.95799 1.1939C9.75228 0.884176 9.57063 0.84 9.4999 0.84C9.42916 0.84 9.24752 0.884176 9.0418 1.1939C8.95397 1.32614 8.8754 1.49025 8.8149 1.68Z" fill="#191919"/>
<path d="M7.77273 18.48H6.90909C6.90909 19.8718 8.06908 21 9.5 21C10.9309 21 12.0909 19.8718 12.0909 18.48H11.2273C11.2273 19.4078 10.4539 20.16 9.5 20.16C8.54605 20.16 7.77273 19.4078 7.77273 18.48Z" fill="#191919"/>
</svg>
